<?xml version="1.0" encoding="UTF-8"?>
<!-- Platform Icons SVG Sprite -->
<!-- Custom icons for platform brands not available in MDI -->
<svg xmlns="http://www.w3.org/2000/svg" style="display: none;">

  <!-- Sega: Official logo from Simple Icons (simpleicons.org) -->
  <!-- Brand color: #0089CF -->
  <symbol id="platform-sega" viewBox="0 0 24 24">
    <path fill="currentColor" d="M21.229 4.14l-.006 3.33h-10.6c-.219 0-.397.181-.397.399 0 .221.18.399.397.399l2.76-.016c4.346 0 7.868 3.525 7.868 7.869 0 4.348-3.522 7.869-7.869 7.869L2.748 24l.005-3.375h10.635c2.487 0 4.504-2.016 4.504-4.504 0-2.49-2.017-4.506-4.506-4.506l-2.771-.03c-2.06 0-3.727-1.666-3.727-3.72 0-2.061 1.666-3.726 3.723-3.726h10.618zM2.763 19.843l-.004-3.331h10.609c.21 0 .383-.175.383-.387 0-.213-.173-.385-.384-.385h-2.744c-4.345 0-7.867-3.525-7.867-7.871S6.278 0 10.623 0l10.6.003.006 3.35-10.604.003c-2.49 0-4.5 2.019-4.5 4.507 0 2.489 2.024 4.504 4.515 4.504l2.775.03c2.055 0 3.72 1.668 3.72 3.724 0 2.055-1.665 3.719-3.72 3.719H2.765l-.002.003z"/>
  </symbol>

  <!-- Sega: Sonic hedgehog silhouette -->
  <symbol id="platform-sonic" viewBox="0 0 24 24">
    <path fill="currentColor" d="M12 2c-.55 0-1 .45-1 1v1c-3.31 0-6 2.69-6 6 0 1.66.67 3.16 1.76 4.24l-2.12 2.12c-.39.39-.39 1.02 0 1.41.39.39 1.02.39 1.41 0l2.12-2.12c1.08 1.09 2.58 1.76 4.24 1.76V18h-2c-.55 0-1 .45-1 1s.45 1 1 1h6c.55 0 1-.45 1-1s-.45-1-1-1h-2v-1.59c1.66 0 3.16-.67 4.24-1.76l2.12 2.12c.39.39 1.02.39 1.41 0 .39-.39.39-1.02 0-1.41l-2.12-2.12C18.33 12.16 19 10.66 19 9c0-3.31-2.69-6-6-6V2c0-.55-.45-1-1-1zm1 5c2.21 0 4 1.79 4 4s-1.79 4-4 4-4-1.79-4-4 1.79-4 4-4zm-1 2c-1.1 0-2 .9-2 2s.9 2 2 2 2-.9 2-2-.9-2-2-2z"/>
  </symbol>

</svg>
